<?xml version="1.0" encoding="UTF-8"?>
<svg xmlns="http://www.w3.org/2000/svg" xmlns:xlink="http://www.w3.org/1999/xlink" width="1000pt" height="1000pt" viewBox="0 0 1000 1000" version="1.1">
<g id="surface1">
<path style=" stroke:none;fill-rule:nonzero;fill:rgb(100%,0%,0%);fill-opacity:1;" d="M 293.386719 293.386719 L 706.609375 293.386719 L 706.609375 706.609375 L 293.386719 706.609375 Z M 293.386719 293.386719 "/>
<path style=" stroke:none;fill-rule:nonzero;fill:rgb(0%,100%,0%);fill-opacity:1;" d="M 190.082031 190.082031 L 396.695313 190.082031 L 396.695313 396.695313 L 190.082031 396.695313 Z M 190.082031 190.082031 "/>
<path style=" stroke:none;fill-rule:nonzero;fill:rgb(0%,100%,0%);fill-opacity:1;" d="M 190.082031 603.304688 L 396.695313 603.304688 L 396.695313 809.917969 L 190.082031 809.917969 Z M 190.082031 603.304688 "/>
<path style=" stroke:none;fill-rule:nonzero;fill:rgb(0%,100%,0%);fill-opacity:1;" d="M 603.304688 190.082031 L 809.917969 190.082031 L 809.917969 396.695313 L 603.304688 396.695313 Z M 603.304688 190.082031 "/>
<path style=" stroke:none;fill-rule:nonzero;fill:rgb(0%,100%,0%);fill-opacity:1;" d="M 603.304688 603.304688 L 809.917969 603.304688 L 809.917969 809.917969 L 603.304688 809.917969 Z M 603.304688 603.304688 "/>
<path style=" stroke:none;fill-rule:nonzero;fill:rgb(0%,0%,100%);fill-opacity:1;" d="M 107.4375 107.4375 L 272.726563 107.4375 L 272.726563 272.726563 L 107.4375 272.726563 Z M 107.4375 107.4375 "/>
<path style=" stroke:none;fill-rule:nonzero;fill:rgb(0%,0%,100%);fill-opacity:1;" d="M 107.4375 314.050781 L 272.726563 314.050781 L 272.726563 479.339844 L 107.4375 479.339844 Z M 107.4375 314.050781 "/>
<path style=" stroke:none;fill-rule:nonzero;fill:rgb(0%,0%,100%);fill-opacity:1;" d="M 314.050781 107.4375 L 479.339844 107.4375 L 479.339844 272.726563 L 314.050781 272.726563 Z M 314.050781 107.4375 "/>
<path style=" stroke:none;fill-rule:nonzero;fill:rgb(0%,0%,100%);fill-opacity:1;" d="M 314.050781 314.050781 L 479.339844 314.050781 L 479.339844 479.339844 L 314.050781 479.339844 Z M 314.050781 314.050781 "/>
<path style=" stroke:none;fill-rule:nonzero;fill:rgb(0%,0%,100%);fill-opacity:1;" d="M 107.4375 520.660156 L 272.726563 520.660156 L 272.726563 685.949219 L 107.4375 685.949219 Z M 107.4375 520.660156 "/>
<path style=" stroke:none;fill-rule:nonzero;fill:rgb(0%,0%,100%);fill-opacity:1;" d="M 107.4375 727.273438 L 272.726563 727.273438 L 272.726563 892.5625 L 107.4375 892.5625 Z M 107.4375 727.273438 "/>
<path style=" stroke:none;fill-rule:nonzero;fill:rgb(0%,0%,100%);fill-opacity:1;" d="M 314.050781 520.660156 L 479.339844 520.660156 L 479.339844 685.949219 L 314.050781 685.949219 Z M 314.050781 520.660156 "/>
<path style=" stroke:none;fill-rule:nonzero;fill:rgb(0%,0%,100%);fill-opacity:1;" d="M 314.050781 727.273438 L 479.339844 727.273438 L 479.339844 892.5625 L 314.050781 892.5625 Z M 314.050781 727.273438 "/>
<path style=" stroke:none;fill-rule:nonzero;fill:rgb(0%,0%,100%);fill-opacity:1;" d="M 520.660156 107.4375 L 685.949219 107.4375 L 685.949219 272.726563 L 520.660156 272.726563 Z M 520.660156 107.4375 "/>
<path style=" stroke:none;fill-rule:nonzero;fill:rgb(0%,0%,100%);fill-opacity:1;" d="M 520.660156 314.050781 L 685.949219 314.050781 L 685.949219 479.339844 L 520.660156 479.339844 Z M 520.660156 314.050781 "/>
<path style=" stroke:none;fill-rule:nonzero;fill:rgb(0%,0%,100%);fill-opacity:1;" d="M 727.273438 107.4375 L 892.5625 107.4375 L 892.5625 272.726563 L 727.273438 272.726563 Z M 727.273438 107.4375 "/>
<path style=" stroke:none;fill-rule:nonzero;fill:rgb(0%,0%,100%);fill-opacity:1;" d="M 727.273438 314.050781 L 892.5625 314.050781 L 892.5625 479.339844 L 727.273438 479.339844 Z M 727.273438 314.050781 "/>
<path style=" stroke:none;fill-rule:nonzero;fill:rgb(0%,0%,100%);fill-opacity:1;" d="M 520.660156 520.660156 L 685.949219 520.660156 L 685.949219 685.949219 L 520.660156 685.949219 Z M 520.660156 520.660156 "/>
<path style=" stroke:none;fill-rule:nonzero;fill:rgb(0%,0%,100%);fill-opacity:1;" d="M 520.660156 727.273438 L 685.949219 727.273438 L 685.949219 892.5625 L 520.660156 892.5625 Z M 520.660156 727.273438 "/>
<path style=" stroke:none;fill-rule:nonzero;fill:rgb(0%,0%,100%);fill-opacity:1;" d="M 727.273438 520.660156 L 892.5625 520.660156 L 892.5625 685.949219 L 727.273438 685.949219 Z M 727.273438 520.660156 "/>
<path style=" stroke:none;fill-rule:nonzero;fill:rgb(0%,0%,100%);fill-opacity:1;" d="M 727.273438 727.273438 L 892.5625 727.273438 L 892.5625 892.5625 L 727.273438 892.5625 Z M 727.273438 727.273438 "/>
<path style=" stroke:none;fill-rule:nonzero;fill:rgb(100%,100%,0%);fill-opacity:1;" d="M 45.453125 45.453125 L 169.421875 45.453125 L 169.421875 169.421875 L 45.453125 169.421875 Z M 45.453125 45.453125 "/>
<path style=" stroke:none;fill-rule:nonzero;fill:rgb(100%,100%,0%);fill-opacity:1;" d="M 45.453125 210.742188 L 169.421875 210.742188 L 169.421875 334.710938 L 45.453125 334.710938 Z M 45.453125 210.742188 "/>
<path style=" stroke:none;fill-rule:nonzero;fill:rgb(100%,100%,0%);fill-opacity:1;" d="M 210.742188 45.453125 L 334.710938 45.453125 L 334.710938 169.421875 L 210.742188 169.421875 Z M 210.742188 45.453125 "/>
<path style=" stroke:none;fill-rule:nonzero;fill:rgb(100%,100%,0%);fill-opacity:1;" d="M 210.742188 210.742188 L 334.710938 210.742188 L 334.710938 334.710938 L 210.742188 334.710938 Z M 210.742188 210.742188 "/>
<path style=" stroke:none;fill-rule:nonzero;fill:rgb(100%,100%,0%);fill-opacity:1;" d="M 45.453125 252.066406 L 169.421875 252.066406 L 169.421875 376.035156 L 45.453125 376.035156 Z M 45.453125 252.066406 "/>
<path style=" stroke:none;fill-rule:nonzero;fill:rgb(100%,100%,0%);fill-opacity:1;" d="M 45.453125 417.355469 L 169.421875 417.355469 L 169.421875 541.324219 L 45.453125 541.324219 Z M 45.453125 417.355469 "/>
<path style=" stroke:none;fill-rule:nonzero;fill:rgb(100%,100%,0%);fill-opacity:1;" d="M 210.742188 252.066406 L 334.710938 252.066406 L 334.710938 376.035156 L 210.742188 376.035156 Z M 210.742188 252.066406 "/>
<path style=" stroke:none;fill-rule:nonzero;fill:rgb(100%,100%,0%);fill-opacity:1;" d="M 210.742188 417.355469 L 334.710938 417.355469 L 334.710938 541.324219 L 210.742188 541.324219 Z M 210.742188 417.355469 "/>
<path style=" stroke:none;fill-rule:nonzero;fill:rgb(100%,100%,0%);fill-opacity:1;" d="M 252.066406 45.453125 L 376.035156 45.453125 L 376.035156 169.421875 L 252.066406 169.421875 Z M 252.066406 45.453125 "/>
<path style=" stroke:none;fill-rule:nonzero;fill:rgb(100%,100%,0%);fill-opacity:1;" d="M 252.066406 210.742188 L 376.035156 210.742188 L 376.035156 334.710938 L 252.066406 334.710938 Z M 252.066406 210.742188 "/>
<path style=" stroke:none;fill-rule:nonzero;fill:rgb(100%,100%,0%);fill-opacity:1;" d="M 417.355469 45.453125 L 541.324219 45.453125 L 541.324219 169.421875 L 417.355469 169.421875 Z M 417.355469 45.453125 "/>
<path style=" stroke:none;fill-rule:nonzero;fill:rgb(100%,100%,0%);fill-opacity:1;" d="M 417.355469 210.742188 L 541.324219 210.742188 L 541.324219 334.710938 L 417.355469 334.710938 Z M 417.355469 210.742188 "/>
<path style=" stroke:none;fill-rule:nonzero;fill:rgb(100%,100%,0%);fill-opacity:1;" d="M 252.066406 252.066406 L 376.035156 252.066406 L 376.035156 376.035156 L 252.066406 376.035156 Z M 252.066406 252.066406 "/>
<path style=" stroke:none;fill-rule:nonzero;fill:rgb(100%,100%,0%);fill-opacity:1;" d="M 252.066406 417.355469 L 376.035156 417.355469 L 376.035156 541.324219 L 252.066406 541.324219 Z M 252.066406 417.355469 "/>
<path style=" stroke:none;fill-rule:nonzero;fill:rgb(100%,100%,0%);fill-opacity:1;" d="M 417.355469 252.066406 L 541.324219 252.066406 L 541.324219 376.035156 L 417.355469 376.035156 Z M 417.355469 252.066406 "/>
<path style=" stroke:none;fill-rule:nonzero;fill:rgb(100%,100%,0%);fill-opacity:1;" d="M 417.355469 417.355469 L 541.324219 417.355469 L 541.324219 541.324219 L 417.355469 541.324219 Z M 417.355469 417.355469 "/>
<path style=" stroke:none;fill-rule:nonzero;fill:rgb(100%,100%,0%);fill-opacity:1;" d="M 45.453125 458.675781 L 169.421875 458.675781 L 169.421875 582.644531 L 45.453125 582.644531 Z M 45.453125 458.675781 "/>
<path style=" stroke:none;fill-rule:nonzero;fill:rgb(100%,100%,0%);fill-opacity:1;" d="M 45.453125 623.96875 L 169.421875 623.96875 L 169.421875 747.9375 L 45.453125 747.9375 Z M 45.453125 623.96875 "/>
<path style=" stroke:none;fill-rule:nonzero;fill:rgb(100%,100%,0%);fill-opacity:1;" d="M 210.742188 458.675781 L 334.710938 458.675781 L 334.710938 582.644531 L 210.742188 582.644531 Z M 210.742188 458.675781 "/>
<path style=" stroke:none;fill-rule:nonzero;fill:rgb(100%,100%,0%);fill-opacity:1;" d="M 210.742188 623.96875 L 334.710938 623.96875 L 334.710938 747.9375 L 210.742188 747.9375 Z M 210.742188 623.96875 "/>
<path style=" stroke:none;fill-rule:nonzero;fill:rgb(100%,100%,0%);fill-opacity:1;" d="M 45.453125 665.289063 L 169.421875 665.289063 L 169.421875 789.257813 L 45.453125 789.257813 Z M 45.453125 665.289063 "/>
<path style=" stroke:none;fill-rule:nonzero;fill:rgb(100%,100%,0%);fill-opacity:1;" d="M 45.453125 830.578125 L 169.421875 830.578125 L 169.421875 954.546875 L 45.453125 954.546875 Z M 45.453125 830.578125 "/>
<path style=" stroke:none;fill-rule:nonzero;fill:rgb(100%,100%,0%);fill-opacity:1;" d="M 210.742188 665.289063 L 334.710938 665.289063 L 334.710938 789.257813 L 210.742188 789.257813 Z M 210.742188 665.289063 "/>
<path style=" stroke:none;fill-rule:nonzero;fill:rgb(100%,100%,0%);fill-opacity:1;" d="M 210.742188 830.578125 L 334.710938 830.578125 L 334.710938 954.546875 L 210.742188 954.546875 Z M 210.742188 830.578125 "/>
<path style=" stroke:none;fill-rule:nonzero;fill:rgb(100%,100%,0%);fill-opacity:1;" d="M 252.066406 458.675781 L 376.035156 458.675781 L 376.035156 582.644531 L 252.066406 582.644531 Z M 252.066406 458.675781 "/>
<path style=" stroke:none;fill-rule:nonzero;fill:rgb(100%,100%,0%);fill-opacity:1;" d="M 252.066406 623.96875 L 376.035156 623.96875 L 376.035156 747.9375 L 252.066406 747.9375 Z M 252.066406 623.96875 "/>
<path style=" stroke:none;fill-rule:nonzero;fill:rgb(100%,100%,0%);fill-opacity:1;" d="M 417.355469 458.675781 L 541.324219 458.675781 L 541.324219 582.644531 L 417.355469 582.644531 Z M 417.355469 458.675781 "/>
<path style=" stroke:none;fill-rule:nonzero;fill:rgb(100%,100%,0%);fill-opacity:1;" d="M 417.355469 623.96875 L 541.324219 623.96875 L 541.324219 747.9375 L 417.355469 747.9375 Z M 417.355469 623.96875 "/>
<path style=" stroke:none;fill-rule:nonzero;fill:rgb(100%,100%,0%);fill-opacity:1;" d="M 252.066406 665.289063 L 376.035156 665.289063 L 376.035156 789.257813 L 252.066406 789.257813 Z M 252.066406 665.289063 "/>
<path style=" stroke:none;fill-rule:nonzero;fill:rgb(100%,100%,0%);fill-opacity:1;" d="M 252.066406 830.578125 L 376.035156 830.578125 L 376.035156 954.546875 L 252.066406 954.546875 Z M 252.066406 830.578125 "/>
<path style=" stroke:none;fill-rule:nonzero;fill:rgb(100%,100%,0%);fill-opacity:1;" d="M 417.355469 665.289063 L 541.324219 665.289063 L 541.324219 789.257813 L 417.355469 789.257813 Z M 417.355469 665.289063 "/>
<path style=" stroke:none;fill-rule:nonzero;fill:rgb(100%,100%,0%);fill-opacity:1;" d="M 417.355469 830.578125 L 541.324219 830.578125 L 541.324219 954.546875 L 417.355469 954.546875 Z M 417.355469 830.578125 "/>
<path style=" stroke:none;fill-rule:nonzero;fill:rgb(100%,100%,0%);fill-opacity:1;" d="M 458.675781 45.453125 L 582.644531 45.453125 L 582.644531 169.421875 L 458.675781 169.421875 Z M 458.675781 45.453125 "/>
<path style=" stroke:none;fill-rule:nonzero;fill:rgb(100%,100%,0%);fill-opacity:1;" d="M 458.675781 210.742188 L 582.644531 210.742188 L 582.644531 334.710938 L 458.675781 334.710938 Z M 458.675781 210.742188 "/>
<path style=" stroke:none;fill-rule:nonzero;fill:rgb(100%,100%,0%);fill-opacity:1;" d="M 623.96875 45.453125 L 747.9375 45.453125 L 747.9375 169.421875 L 623.96875 169.421875 Z M 623.96875 45.453125 "/>
<path style=" stroke:none;fill-rule:nonzero;fill:rgb(100%,100%,0%);fill-opacity:1;" d="M 623.96875 210.742188 L 747.9375 210.742188 L 747.9375 334.710938 L 623.96875 334.710938 Z M 623.96875 210.742188 "/>
<path style=" stroke:none;fill-rule:nonzero;fill:rgb(100%,100%,0%);fill-opacity:1;" d="M 458.675781 252.066406 L 582.644531 252.066406 L 582.644531 376.035156 L 458.675781 376.035156 Z M 458.675781 252.066406 "/>
<path style=" stroke:none;fill-rule:nonzero;fill:rgb(100%,100%,0%);fill-opacity:1;" d="M 458.675781 417.355469 L 582.644531 417.355469 L 582.644531 541.324219 L 458.675781 541.324219 Z M 458.675781 417.355469 "/>
<path style=" stroke:none;fill-rule:nonzero;fill:rgb(100%,100%,0%);fill-opacity:1;" d="M 623.96875 252.066406 L 747.9375 252.066406 L 747.9375 376.035156 L 623.96875 376.035156 Z M 623.96875 252.066406 "/>
<path style=" stroke:none;fill-rule:nonzero;fill:rgb(100%,100%,0%);fill-opacity:1;" d="M 623.96875 417.355469 L 747.9375 417.355469 L 747.9375 541.324219 L 623.96875 541.324219 Z M 623.96875 417.355469 "/>
<path style=" stroke:none;fill-rule:nonzero;fill:rgb(100%,100%,0%);fill-opacity:1;" d="M 665.289063 45.453125 L 789.257813 45.453125 L 789.257813 169.421875 L 665.289063 169.421875 Z M 665.289063 45.453125 "/>
<path style=" stroke:none;fill-rule:nonzero;fill:rgb(100%,100%,0%);fill-opacity:1;" d="M 665.289063 210.742188 L 789.257813 210.742188 L 789.257813 334.710938 L 665.289063 334.710938 Z M 665.289063 210.742188 "/>
<path style=" stroke:none;fill-rule:nonzero;fill:rgb(100%,100%,0%);fill-opacity:1;" d="M 830.578125 45.453125 L 954.546875 45.453125 L 954.546875 169.421875 L 830.578125 169.421875 Z M 830.578125 45.453125 "/>
<path style=" stroke:none;fill-rule:nonzero;fill:rgb(100%,100%,0%);fill-opacity:1;" d="M 830.578125 210.742188 L 954.546875 210.742188 L 954.546875 334.710938 L 830.578125 334.710938 Z M 830.578125 210.742188 "/>
<path style=" stroke:none;fill-rule:nonzero;fill:rgb(100%,100%,0%);fill-opacity:1;" d="M 665.289063 252.066406 L 789.257813 252.066406 L 789.257813 376.035156 L 665.289063 376.035156 Z M 665.289063 252.066406 "/>
<path style=" stroke:none;fill-rule:nonzero;fill:rgb(100%,100%,0%);fill-opacity:1;" d="M 665.289063 417.355469 L 789.257813 417.355469 L 789.257813 541.324219 L 665.289063 541.324219 Z M 665.289063 417.355469 "/>
<path style=" stroke:none;fill-rule:nonzero;fill:rgb(100%,100%,0%);fill-opacity:1;" d="M 830.578125 252.066406 L 954.546875 252.066406 L 954.546875 376.035156 L 830.578125 376.035156 Z M 830.578125 252.066406 "/>
<path style=" stroke:none;fill-rule:nonzero;fill:rgb(100%,100%,0%);fill-opacity:1;" d="M 830.578125 417.355469 L 954.546875 417.355469 L 954.546875 541.324219 L 830.578125 541.324219 Z M 830.578125 417.355469 "/>
<path style=" stroke:none;fill-rule:nonzero;fill:rgb(100%,100%,0%);fill-opacity:1;" d="M 458.675781 458.675781 L 582.644531 458.675781 L 582.644531 582.644531 L 458.675781 582.644531 Z M 458.675781 458.675781 "/>
<path style=" stroke:none;fill-rule:nonzero;fill:rgb(100%,100%,0%);fill-opacity:1;" d="M 458.675781 623.96875 L 582.644531 623.96875 L 582.644531 747.9375 L 458.675781 747.9375 Z M 458.675781 623.96875 "/>
<path style=" stroke:none;fill-rule:nonzero;fill:rgb(100%,100%,0%);fill-opacity:1;" d="M 623.96875 458.675781 L 747.9375 458.675781 L 747.9375 582.644531 L 623.96875 582.644531 Z M 623.96875 458.675781 "/>
<path style=" stroke:none;fill-rule:nonzero;fill:rgb(100%,100%,0%);fill-opacity:1;" d="M 623.96875 623.96875 L 747.9375 623.96875 L 747.9375 747.9375 L 623.96875 747.9375 Z M 623.96875 623.96875 "/>
<path style=" stroke:none;fill-rule:nonzero;fill:rgb(100%,100%,0%);fill-opacity:1;" d="M 458.675781 665.289063 L 582.644531 665.289063 L 582.644531 789.257813 L 458.675781 789.257813 Z M 458.675781 665.289063 "/>
<path style=" stroke:none;fill-rule:nonzero;fill:rgb(100%,100%,0%);fill-opacity:1;" d="M 458.675781 830.578125 L 582.644531 830.578125 L 582.644531 954.546875 L 458.675781 954.546875 Z M 458.675781 830.578125 "/>
<path style=" stroke:none;fill-rule:nonzero;fill:rgb(100%,100%,0%);fill-opacity:1;" d="M 623.96875 665.289063 L 747.9375 665.289063 L 747.9375 789.257813 L 623.96875 789.257813 Z M 623.96875 665.289063 "/>
<path style=" stroke:none;fill-rule:nonzero;fill:rgb(100%,100%,0%);fill-opacity:1;" d="M 623.96875 830.578125 L 747.9375 830.578125 L 747.9375 954.546875 L 623.96875 954.546875 Z M 623.96875 830.578125 "/>
<path style=" stroke:none;fill-rule:nonzero;fill:rgb(100%,100%,0%);fill-opacity:1;" d="M 665.289063 458.675781 L 789.257813 458.675781 L 789.257813 582.644531 L 665.289063 582.644531 Z M 665.289063 458.675781 "/>
<path style=" stroke:none;fill-rule:nonzero;fill:rgb(100%,100%,0%);fill-opacity:1;" d="M 665.289063 623.96875 L 789.257813 623.96875 L 789.257813 747.9375 L 665.289063 747.9375 Z M 665.289063 623.96875 "/>
<path style=" stroke:none;fill-rule:nonzero;fill:rgb(100%,100%,0%);fill-opacity:1;" d="M 830.578125 458.675781 L 954.546875 458.675781 L 954.546875 582.644531 L 830.578125 582.644531 Z M 830.578125 458.675781 "/>
<path style=" stroke:none;fill-rule:nonzero;fill:rgb(100%,100%,0%);fill-opacity:1;" d="M 830.578125 623.96875 L 954.546875 623.96875 L 954.546875 747.9375 L 830.578125 747.9375 Z M 830.578125 623.96875 "/>
<path style=" stroke:none;fill-rule:nonzero;fill:rgb(100%,100%,0%);fill-opacity:1;" d="M 665.289063 665.289063 L 789.257813 665.289063 L 789.257813 789.257813 L 665.289063 789.257813 Z M 665.289063 665.289063 "/>
<path style=" stroke:none;fill-rule:nonzero;fill:rgb(100%,100%,0%);fill-opacity:1;" d="M 665.289063 830.578125 L 789.257813 830.578125 L 789.257813 954.546875 L 665.289063 954.546875 Z M 665.289063 830.578125 "/>
<path style=" stroke:none;fill-rule:nonzero;fill:rgb(100%,100%,0%);fill-opacity:1;" d="M 830.578125 665.289063 L 954.546875 665.289063 L 954.546875 789.257813 L 830.578125 789.257813 Z M 830.578125 665.289063 "/>
<path style=" stroke:none;fill-rule:nonzero;fill:rgb(100%,100%,0%);fill-opacity:1;" d="M 830.578125 830.578125 L 954.546875 830.578125 L 954.546875 954.546875 L 830.578125 954.546875 Z M 830.578125 830.578125 "/>
</g>
</svg>
