<?xml version="1.0" encoding="UTF-8"?>
<svg xmlns="http://www.w3.org/2000/svg" xmlns:xlink="http://www.w3.org/1999/xlink" width="1000pt" height="1000pt" viewBox="0 0 1000 1000" version="1.1">
<g id="surface1">
<path style=" stroke:none;fill-rule:nonzero;fill:rgb(100%,0%,0%);fill-opacity:1;" d="M 260.765625 260.765625 L 739.234375 260.765625 L 739.234375 739.234375 L 260.765625 739.234375 Z M 260.765625 260.765625 "/>
<path style=" stroke:none;fill-rule:nonzero;fill:rgb(0%,100%,0%);fill-opacity:1;" d="M 69.378906 69.378906 L 452.152344 69.378906 L 452.152344 452.152344 L 69.378906 452.152344 Z M 69.378906 69.378906 "/>
<path style=" stroke:none;fill-rule:nonzero;fill:rgb(0%,100%,0%);fill-opacity:1;" d="M 69.378906 547.847656 L 452.152344 547.847656 L 452.152344 930.621094 L 69.378906 930.621094 Z M 69.378906 547.847656 "/>
<path style=" stroke:none;fill-rule:nonzero;fill:rgb(0%,100%,0%);fill-opacity:1;" d="M 547.847656 69.378906 L 930.621094 69.378906 L 930.621094 452.152344 L 547.847656 452.152344 Z M 547.847656 69.378906 "/>
<path style=" stroke:none;fill-rule:nonzero;fill:rgb(0%,100%,0%);fill-opacity:1;" d="M 547.847656 547.847656 L 930.621094 547.847656 L 930.621094 930.621094 L 547.847656 930.621094 Z M 547.847656 547.847656 "/>
<path style=" stroke:none;fill-rule:nonzero;fill:rgb(0%,0%,100%);fill-opacity:1;" d="M 45.453125 45.453125 L 93.300781 45.453125 L 93.300781 93.300781 L 45.453125 93.300781 Z M 45.453125 45.453125 "/>
<path style=" stroke:none;fill-rule:nonzero;fill:rgb(0%,0%,100%);fill-opacity:1;" d="M 45.453125 428.230469 L 93.300781 428.230469 L 93.300781 476.078125 L 45.453125 476.078125 Z M 45.453125 428.230469 "/>
<path style=" stroke:none;fill-rule:nonzero;fill:rgb(0%,0%,100%);fill-opacity:1;" d="M 428.230469 45.453125 L 476.078125 45.453125 L 476.078125 93.300781 L 428.230469 93.300781 Z M 428.230469 45.453125 "/>
<path style=" stroke:none;fill-rule:nonzero;fill:rgb(0%,0%,100%);fill-opacity:1;" d="M 428.230469 428.230469 L 476.078125 428.230469 L 476.078125 476.078125 L 428.230469 476.078125 Z M 428.230469 428.230469 "/>
<path style=" stroke:none;fill-rule:nonzero;fill:rgb(0%,0%,100%);fill-opacity:1;" d="M 45.453125 523.921875 L 93.300781 523.921875 L 93.300781 571.769531 L 45.453125 571.769531 Z M 45.453125 523.921875 "/>
<path style=" stroke:none;fill-rule:nonzero;fill:rgb(0%,0%,100%);fill-opacity:1;" d="M 45.453125 906.699219 L 93.300781 906.699219 L 93.300781 954.546875 L 45.453125 954.546875 Z M 45.453125 906.699219 "/>
<path style=" stroke:none;fill-rule:nonzero;fill:rgb(0%,0%,100%);fill-opacity:1;" d="M 428.230469 523.921875 L 476.078125 523.921875 L 476.078125 571.769531 L 428.230469 571.769531 Z M 428.230469 523.921875 "/>
<path style=" stroke:none;fill-rule:nonzero;fill:rgb(0%,0%,100%);fill-opacity:1;" d="M 428.230469 906.699219 L 476.078125 906.699219 L 476.078125 954.546875 L 428.230469 954.546875 Z M 428.230469 906.699219 "/>
<path style=" stroke:none;fill-rule:nonzero;fill:rgb(0%,0%,100%);fill-opacity:1;" d="M 523.921875 45.453125 L 571.769531 45.453125 L 571.769531 93.300781 L 523.921875 93.300781 Z M 523.921875 45.453125 "/>
<path style=" stroke:none;fill-rule:nonzero;fill:rgb(0%,0%,100%);fill-opacity:1;" d="M 523.921875 428.230469 L 571.769531 428.230469 L 571.769531 476.078125 L 523.921875 476.078125 Z M 523.921875 428.230469 "/>
<path style=" stroke:none;fill-rule:nonzero;fill:rgb(0%,0%,100%);fill-opacity:1;" d="M 906.699219 45.453125 L 954.546875 45.453125 L 954.546875 93.300781 L 906.699219 93.300781 Z M 906.699219 45.453125 "/>
<path style=" stroke:none;fill-rule:nonzero;fill:rgb(0%,0%,100%);fill-opacity:1;" d="M 906.699219 428.230469 L 954.546875 428.230469 L 954.546875 476.078125 L 906.699219 476.078125 Z M 906.699219 428.230469 "/>
<path style=" stroke:none;fill-rule:nonzero;fill:rgb(0%,0%,100%);fill-opacity:1;" d="M 523.921875 523.921875 L 571.769531 523.921875 L 571.769531 571.769531 L 523.921875 571.769531 Z M 523.921875 523.921875 "/>
<path style=" stroke:none;fill-rule:nonzero;fill:rgb(0%,0%,100%);fill-opacity:1;" d="M 523.921875 906.699219 L 571.769531 906.699219 L 571.769531 954.546875 L 523.921875 954.546875 Z M 523.921875 906.699219 "/>
<path style=" stroke:none;fill-rule:nonzero;fill:rgb(0%,0%,100%);fill-opacity:1;" d="M 906.699219 523.921875 L 954.546875 523.921875 L 954.546875 571.769531 L 906.699219 571.769531 Z M 906.699219 523.921875 "/>
<path style=" stroke:none;fill-rule:nonzero;fill:rgb(0%,0%,100%);fill-opacity:1;" d="M 906.699219 906.699219 L 954.546875 906.699219 L 954.546875 954.546875 L 906.699219 954.546875 Z M 906.699219 906.699219 "/>
</g>
</svg>
