<?xml version="1.0" encoding="UTF-8"?>
<svg xmlns="http://www.w3.org/2000/svg" xmlns:xlink="http://www.w3.org/1999/xlink" width="1000pt" height="1000pt" viewBox="0 0 1000 1000" version="1.1">
<g id="surface1">
<path style=" stroke:none;fill-rule:nonzero;fill:rgb(100%,0%,0%);fill-opacity:1;" d="M 374.609375 374.609375 L 625.394531 374.609375 L 625.394531 625.394531 L 374.609375 625.394531 Z M 374.609375 374.609375 "/>
<path style=" stroke:none;fill-rule:nonzero;fill:rgb(0%,100%,0%);fill-opacity:1;" d="M 61.128906 61.128906 L 688.089844 61.128906 L 688.089844 688.089844 L 61.128906 688.089844 Z M 61.128906 61.128906 "/>
<path style=" stroke:none;fill-rule:nonzero;fill:rgb(0%,100%,0%);fill-opacity:1;" d="M 61.128906 311.914063 L 688.089844 311.914063 L 688.089844 938.875 L 61.128906 938.875 Z M 61.128906 311.914063 "/>
<path style=" stroke:none;fill-rule:nonzero;fill:rgb(0%,100%,0%);fill-opacity:1;" d="M 311.914063 61.128906 L 938.875 61.128906 L 938.875 688.089844 L 311.914063 688.089844 Z M 311.914063 61.128906 "/>
<path style=" stroke:none;fill-rule:nonzero;fill:rgb(0%,100%,0%);fill-opacity:1;" d="M 311.914063 311.914063 L 938.875 311.914063 L 938.875 938.875 L 311.914063 938.875 Z M 311.914063 311.914063 "/>
<path style=" stroke:none;fill-rule:nonzero;fill:rgb(0%,0%,100%);fill-opacity:1;" d="M 45.453125 45.453125 L 76.800781 45.453125 L 76.800781 76.800781 L 45.453125 76.800781 Z M 45.453125 45.453125 "/>
<path style=" stroke:none;fill-rule:nonzero;fill:rgb(0%,0%,100%);fill-opacity:1;" d="M 45.453125 672.414063 L 76.800781 672.414063 L 76.800781 703.761719 L 45.453125 703.761719 Z M 45.453125 672.414063 "/>
<path style=" stroke:none;fill-rule:nonzero;fill:rgb(0%,0%,100%);fill-opacity:1;" d="M 672.414063 45.453125 L 703.761719 45.453125 L 703.761719 76.800781 L 672.414063 76.800781 Z M 672.414063 45.453125 "/>
<path style=" stroke:none;fill-rule:nonzero;fill:rgb(0%,0%,100%);fill-opacity:1;" d="M 672.414063 672.414063 L 703.761719 672.414063 L 703.761719 703.761719 L 672.414063 703.761719 Z M 672.414063 672.414063 "/>
<path style=" stroke:none;fill-rule:nonzero;fill:rgb(0%,0%,100%);fill-opacity:1;" d="M 45.453125 296.238281 L 76.800781 296.238281 L 76.800781 327.585938 L 45.453125 327.585938 Z M 45.453125 296.238281 "/>
<path style=" stroke:none;fill-rule:nonzero;fill:rgb(0%,0%,100%);fill-opacity:1;" d="M 45.453125 923.199219 L 76.800781 923.199219 L 76.800781 954.546875 L 45.453125 954.546875 Z M 45.453125 923.199219 "/>
<path style=" stroke:none;fill-rule:nonzero;fill:rgb(0%,0%,100%);fill-opacity:1;" d="M 672.414063 296.238281 L 703.761719 296.238281 L 703.761719 327.585938 L 672.414063 327.585938 Z M 672.414063 296.238281 "/>
<path style=" stroke:none;fill-rule:nonzero;fill:rgb(0%,0%,100%);fill-opacity:1;" d="M 672.414063 923.199219 L 703.761719 923.199219 L 703.761719 954.546875 L 672.414063 954.546875 Z M 672.414063 923.199219 "/>
<path style=" stroke:none;fill-rule:nonzero;fill:rgb(0%,0%,100%);fill-opacity:1;" d="M 296.238281 45.453125 L 327.585938 45.453125 L 327.585938 76.800781 L 296.238281 76.800781 Z M 296.238281 45.453125 "/>
<path style=" stroke:none;fill-rule:nonzero;fill:rgb(0%,0%,100%);fill-opacity:1;" d="M 296.238281 672.414063 L 327.585938 672.414063 L 327.585938 703.761719 L 296.238281 703.761719 Z M 296.238281 672.414063 "/>
<path style=" stroke:none;fill-rule:nonzero;fill:rgb(0%,0%,100%);fill-opacity:1;" d="M 923.199219 45.453125 L 954.546875 45.453125 L 954.546875 76.800781 L 923.199219 76.800781 Z M 923.199219 45.453125 "/>
<path style=" stroke:none;fill-rule:nonzero;fill:rgb(0%,0%,100%);fill-opacity:1;" d="M 923.199219 672.414063 L 954.546875 672.414063 L 954.546875 703.761719 L 923.199219 703.761719 Z M 923.199219 672.414063 "/>
<path style=" stroke:none;fill-rule:nonzero;fill:rgb(0%,0%,100%);fill-opacity:1;" d="M 296.238281 296.238281 L 327.585938 296.238281 L 327.585938 327.585938 L 296.238281 327.585938 Z M 296.238281 296.238281 "/>
<path style=" stroke:none;fill-rule:nonzero;fill:rgb(0%,0%,100%);fill-opacity:1;" d="M 296.238281 923.199219 L 327.585938 923.199219 L 327.585938 954.546875 L 296.238281 954.546875 Z M 296.238281 923.199219 "/>
<path style=" stroke:none;fill-rule:nonzero;fill:rgb(0%,0%,100%);fill-opacity:1;" d="M 923.199219 296.238281 L 954.546875 296.238281 L 954.546875 327.585938 L 923.199219 327.585938 Z M 923.199219 296.238281 "/>
<path style=" stroke:none;fill-rule:nonzero;fill:rgb(0%,0%,100%);fill-opacity:1;" d="M 923.199219 923.199219 L 954.546875 923.199219 L 954.546875 954.546875 L 923.199219 954.546875 Z M 923.199219 923.199219 "/>
</g>
</svg>
